HIERARCHY
ROOT hip
{
	OFFSET 0.000000 0.000000 0.000000 
	CHANNELS 6 Xposition Yposition Zposition Xrotation Zrotation Yrotation
	JOINT abdomen
	{
		OFFSET 0.000000 3.402643 0.000000 
		CHANNELS 3 Xrotation Zrotation Yrotation
		JOINT chest
		{
			OFFSET 0.000000 8.438565 -0.680529 
			CHANNELS 3 Xrotation Zrotation Yrotation
			JOINT neck
			{
				OFFSET 0.000000 10.207942 -0.272212 
				CHANNELS 3 Xrotation Zrotation Yrotation
				JOINT head
				{
					OFFSET 0.000000 3.130431 0.000000 
					CHANNELS 3 Xrotation Zrotation Yrotation
					End Site
					{
						OFFSET 0.000000 3.130435 0.000000 
					}
				}
			}
			JOINT lCollar
			{
				OFFSET 3.470700 6.669187 -0.816635 
				CHANNELS 3 Yrotation Zrotation Xrotation
				JOINT lShldr
				{
					OFFSET 3.198488 0.000000 0.000000 
					CHANNELS 3 Zrotation Yrotation Xrotation
					JOINT lForeArm
					{
						OFFSET 10.139888 0.000000 0.000000 
						CHANNELS 3 Yrotation Zrotation Xrotation
						JOINT lHand
						{
							OFFSET 8.370511 0.000000 0.000000 
							CHANNELS 3 Zrotation Yrotation Xrotation
							End Site
							{
								OFFSET 4.083176 0.000000 0.000000 
							}
						}
					}
				}
			}
			JOINT rCollar
			{
				OFFSET -3.470700 6.669187 -0.816635 
				CHANNELS 3 Yrotation Zrotation Xrotation
				JOINT rShldr
				{
					OFFSET -3.198488 0.000000 0.000000 
					CHANNELS 3 Zrotation Yrotation Xrotation
					JOINT rForeArm
					{
						OFFSET -10.139888 0.000000 0.000000 
						CHANNELS 3 Yrotation Zrotation Xrotation
						JOINT rHand
						{
							OFFSET -8.370511 0.000000 0.000000 
							CHANNELS 3 Zrotation Yrotation Xrotation
							End Site
							{
								OFFSET -4.083176 0.000000 0.000000 
							}
						}
					}
				}
			}
		}
	}
	JOINT lThigh
	{
		OFFSET 5.308129 -1.633274 1.361059 
		CHANNELS 3 Xrotation Zrotation Yrotation
		JOINT lShin
		{
			OFFSET -2.041588 -20.007561 0.000000 
			CHANNELS 3 Xrotation Zrotation Yrotation
			JOINT lFoot
			{
				OFFSET 0.000000 -19.190928 -1.224953 
				CHANNELS 3 Xrotation Yrotation Zrotation
				End Site
				{
					OFFSET 0.000000 -2.449906 4.627600 
				}
			}
		}
	}
	JOINT rThigh
	{
		OFFSET -5.308129 -1.633274 1.361059 
		CHANNELS 3 Xrotation Zrotation Yrotation
		JOINT rShin
		{
			OFFSET 2.041588 -20.007561 0.000000 
			CHANNELS 3 Xrotation Zrotation Yrotation
			JOINT rFoot
			{
				OFFSET 0.000000 -19.190928 -1.224953 
				CHANNELS 3 Xrotation Yrotation Zrotation
				End Site
				{
					OFFSET 0.000000 -2.449906 4.627600 
				}
			}
		}
	}
}
MOTION
Frames: 20
Frame Time: 0.016667
1.006548 43.117447 1.824394 -0.421256 4.560420 -6.420110 -20.106600 -0.763254 2.359130 18.749399 1.512920 0.967910 16.181700 -6.763510 1.720650 14.188500 1.728460 1.631280 2.000000 -2.000000 0.000000 93.555901 -179.949997 7.627090 21.797100 -0.341790 0.050826 0.044944 0.000236 -133.348007 -2.000000 2.000000 0.000000 -92.998299 -176.031998 5.254230 -30.918301 0.332137 0.070250 -0.054850 0.012022 -141.218994 7.217223 -2.299866 -1.095241 0.176670 4.282258 -0.096691 -7.902149 19.533257 3.229206 1.228988 -7.731796 -3.104161 11.643701 -7.576709 -0.622726 -14.667343 3.540995 1.342113 
1.001916 43.111637 1.823562 -0.382054 4.531150 -6.367980 -20.126699 -0.743526 2.300470 18.749300 1.571480 0.946532 16.473700 -6.991060 1.653730 14.324600 1.640960 1.609910 2.000000 -2.000000 0.000000 93.507004 -179.919998 7.431840 21.777599 -0.341807 0.050783 0.045009 0.001219 -132.996002 -2.000000 2.000000 0.000000 -93.076401 -176.061996 5.303130 -30.947599 0.332102 0.070310 -0.054890 0.012540 -141.404007 7.135245 -2.242267 -1.060536 0.197568 4.281134 -0.106577 -8.176545 19.349232 3.278817 1.272327 -7.678068 -3.080971 11.418394 -7.562126 -0.605451 -14.509187 3.533833 1.321463 
1.001107 43.115116 1.822091 -0.421216 4.492070 -6.380540 -20.126900 -0.702216 2.243740 18.739500 1.649560 0.924257 16.643600 -7.223350 1.676330 14.431500 1.553730 1.626400 2.000000 -2.000000 0.000000 93.438599 -179.949005 7.334120 21.865499 -0.341729 0.050978 0.045011 0.001246 -132.985992 -2.000000 2.000000 0.000000 -93.183899 -176.158997 5.303360 -30.810900 0.332269 0.070030 -0.054903 0.012703 -141.462997 7.092375 -2.131196 -0.659398 0.386516 4.278493 -0.077560 -8.173286 18.955402 3.228444 1.330841 -7.603251 -3.035594 11.393517 -7.563475 -0.594497 -14.555319 3.457373 1.326511 
1.003442 43.114861 1.825080 -0.401646 4.531140 -6.379290 -20.117399 -0.714897 2.237850 18.788300 1.649610 0.925663 16.691601 -6.958800 1.770850 14.461700 1.678370 1.679500 2.000000 -2.000000 0.000000 93.487503 -179.871002 7.363590 21.875200 -0.341720 0.050999 0.045047 0.001764 -132.800995 -2.000000 2.000000 0.000000 -93.154602 -176.246994 5.215680 -30.713200 0.332388 0.069830 -0.054864 0.012213 -141.287003 7.235096 -2.325367 -1.483271 0.087128 4.284719 -0.116855 -8.107695 19.713779 3.289147 1.262413 -7.631868 -3.047909 11.524565 -7.632958 -0.614526 -14.656488 3.447235 1.346569 
0.994122 43.117184 1.826584 -0.431088 4.619010 -6.518980 -20.116699 -0.706935 2.286800 18.798000 1.727700 0.943080 16.583401 -6.969580 1.784890 14.403100 1.688410 1.679540 2.000000 -2.000000 0.000000 93.487503 -179.862000 7.490570 21.904499 -0.341694 0.051064 0.045024 0.001437 -132.917999 -2.000000 2.000000 0.000000 -93.183899 -176.227005 5.430480 -30.771799 0.332317 0.069950 -0.054888 0.012513 -141.393997 7.406133 -2.518795 -1.966408 -0.219702 4.318921 -0.146398 -8.043440 20.389837 3.328316 1.257909 -7.825293 -3.130951 11.558246 -7.492592 -0.622717 -14.653495 3.665357 1.309467 
0.990518 43.118603 1.823237 -0.431035 4.531120 -6.489020 -20.136801 -0.663141 2.209000 18.788200 1.766740 0.912284 16.319300 -7.065660 1.813970 14.275800 1.641310 1.676870 2.000000 -2.000000 0.000000 93.448502 -179.783997 7.695820 21.758101 -0.341824 0.050740 0.044983 0.000837 -133.132996 -2.000000 2.000000 0.000000 -93.213203 -176.207993 5.459730 -30.771799 0.332317 0.069950 -0.054892 0.012567 -141.414001 7.236726 -2.221795 -0.920083 0.123974 4.283775 -0.116697 -7.789805 19.353180 3.196552 1.266466 -7.650451 -3.058633 11.516844 -7.573060 -0.609034 -14.595932 3.717614 1.367994 
0.992695 43.128914 1.825933 -0.538700 4.404100 -6.437730 -20.117100 -0.669048 2.220940 18.749201 1.669090 0.914157 16.412800 -7.070210 1.720490 14.305000 1.621880 1.635160 2.000000 -2.000000 0.000000 93.468102 -179.735992 7.881470 21.660400 -0.341910 0.050523 0.044992 0.000973 -133.084000 -2.000000 2.000000 0.000000 -93.135101 -176.130005 5.410710 -30.752300 0.332341 0.069910 -0.054894 0.012594 -141.423996 7.440522 -2.190684 -1.485389 0.004393 4.285688 -0.116473 -8.196629 19.831871 3.351109 1.428913 -7.504745 -3.116300 11.452625 -7.581541 -0.607372 -14.586750 3.665975 1.372968 
0.994314 43.117962 1.818272 -0.528906 4.404110 -6.563930 -20.165600 -0.667523 2.252860 18.690599 1.659280 0.932300 16.581800 -6.896110 1.788750 14.383600 1.688560 1.688730 2.000000 -2.000000 0.000000 93.497398 -179.832993 7.930080 21.758101 -0.341824 0.050740 0.045033 0.001573 -132.869003 -2.000000 2.000000 0.000000 -93.017899 -176.197998 5.440170 -30.547199 0.332590 0.069489 -0.054869 0.012267 -141.307007 7.257282 -2.054542 -0.546832 0.318727 4.293499 -0.097359 -8.066614 19.055023 3.237604 1.321530 -7.505513 -3.037943 11.657522 -7.574152 -0.632151 -14.631492 3.690694 1.377199 
0.994531 43.125690 1.814261 -0.597579 4.540770 -6.531540 -20.185499 -0.692541 2.241760 18.622200 1.717770 0.928344 16.571699 -6.815560 1.765650 14.374200 1.736660 1.677690 2.000000 -2.000000 0.000000 -86.541496 -0.195100 -171.699005 21.699499 -0.341876 0.050610 0.044979 0.000782 -133.151993 -2.000000 2.000000 0.000000 -93.027702 -176.119995 5.518110 -30.547199 0.332590 0.069489 -0.054898 0.012649 -141.442993 7.455701 -2.392149 -1.660057 0.039920 4.324344 -0.126704 -8.209787 19.957855 3.315985 1.386228 -7.601593 -2.916036 11.584129 -7.667464 -0.619027 -14.585078 3.563125 1.416925 
0.990676 43.125172 1.812340 -0.685700 4.491870 -6.684400 -20.213499 -0.652287 2.321380 18.534300 1.698160 0.965461 16.608200 -6.966840 1.689120 14.373600 1.659810 1.634350 2.000000 -2.000000 0.000000 -86.551300 -0.068078 -171.669998 21.728800 -0.341850 0.050675 0.044985 0.000864 -133.123001 -2.000000 2.000000 0.000000 -92.959297 -175.992996 5.556870 -30.566700 0.332566 0.069529 -0.054933 0.013085 -141.598999 7.627216 -2.343750 -1.640674 -0.134895 4.283546 -0.125938 -8.081654 20.128778 3.362338 1.515100 -7.605485 -2.828126 11.422036 -7.538681 -0.603137 -14.465330 3.497866 1.333894 
0.990378 43.112545 1.804589 -0.646640 4.628610 -6.653580 -20.233999 -0.733391 2.299740 18.563601 1.688430 0.947137 16.588699 -6.985250 1.694590 14.363800 1.650280 1.642080 2.000000 -2.000000 0.000000 -86.521896 -0.057783 -171.445007 21.767799 -0.341816 0.050761 0.044972 0.000673 -133.190994 -2.000000 2.000000 0.000000 -92.773697 -175.953995 5.371230 -30.488600 0.332661 0.069368 -0.054836 0.011831 -141.149994 7.294657 -2.351248 -0.528350 0.407631 4.335367 -0.078521 -7.713047 19.134308 3.110910 1.353165 -7.729690 -2.837743 11.658219 -7.662579 -0.629784 -14.621230 3.590025 1.399922 
0.995183 43.115379 1.812306 -0.764222 4.638260 -6.653400 -20.194799 -0.754386 2.327180 18.573400 1.668920 0.957866 16.459900 -6.852170 1.676150 14.305400 1.679530 1.626090 2.000000 -2.000000 0.000000 -86.521797 -0.106058 -171.210999 21.777599 -0.341807 0.050783 0.044992 0.000973 -133.084000 -2.000000 2.000000 0.000000 -92.695602 -175.856003 5.419830 -30.527700 0.332614 0.069449 -0.054768 0.010876 -140.807999 7.788911 -2.590248 -2.169491 -0.286305 4.295538 -0.146024 -8.420289 20.528736 3.459741 1.490669 -7.743701 -2.917279 11.640810 -7.706362 -0.624221 -14.710427 3.580341 1.442002 
0.990839 43.120277 1.821529 -0.822656 4.325730 -6.819690 -20.154499 -0.675756 2.370040 18.602800 1.522550 0.993006 16.463699 -7.017950 1.665590 14.314700 1.612200 1.623930 2.000000 -2.000000 0.000000 -86.599998 -0.145558 -171.395996 21.689699 -0.341885 0.050588 0.045011 0.001246 -132.985992 -2.000000 2.000000 0.000000 -92.656601 -175.865005 5.624930 -30.439800 0.332720 0.069268 -0.054806 0.011422 -141.003998 7.923208 -2.260618 -1.923029 -0.321324 4.351702 -0.156536 -8.260177 20.517292 3.398937 1.589866 -7.383243 -2.829215 11.618592 -7.597445 -0.623213 -14.686646 3.654326 1.414421 
0.982471 43.124275 1.793254 -0.812648 4.120680 -6.786760 -20.223400 -0.622401 2.289820 18.456301 1.502900 0.960533 16.524200 -7.116970 1.669050 14.333900 1.573630 1.617490 2.000000 -2.000000 0.000000 -86.619400 0.001939 -170.966995 21.787399 -0.341798 0.050805 0.044919 -0.000173 -133.494003 -2.000000 2.000000 0.000000 -92.685898 -175.660004 5.995530 -30.644899 0.332471 0.069689 -0.054854 0.012076 -141.238007 7.616187 -1.753683 -0.540311 0.298775 4.304738 -0.097490 -8.029284 19.166368 3.261518 1.686211 -7.154524 -2.642965 11.437505 -7.461701 -0.607512 -14.620981 3.392889 1.305641 
0.975872 43.119122 1.783716 -0.763703 4.130490 -6.802920 -20.243200 -0.629090 2.271980 18.456301 1.532170 0.949694 16.447500 -7.183420 1.664910 14.294700 1.554690 1.612930 2.000000 -2.000000 0.000000 -86.687698 0.060924 -170.800995 21.924101 -0.341677 0.051107 0.044894 -0.000610 -133.649994 -2.000000 2.000000 0.000000 -92.617500 -175.591003 6.034430 -30.683901 0.332424 0.069770 -0.054844 0.011940 -141.188995 7.534487 -1.753890 -0.552930 0.314241 4.313208 -0.107110 -7.908175 19.250900 3.223495 1.612672 -7.107180 -2.492538 11.381753 -7.510600 -0.599864 -14.582218 3.375988 1.328130 
0.982499 43.125950 1.775752 -0.842221 4.306180 -6.820880 -20.243000 -0.655461 2.312920 18.417101 1.600450 0.965631 16.440800 -7.223190 1.625450 14.284700 1.516320 1.595940 2.000000 -2.000000 0.000000 -86.746201 0.119817 -170.673996 21.982700 -0.341625 0.051237 0.044883 -0.000801 -133.718994 -2.000000 2.000000 0.000000 -92.578499 -175.522995 6.063570 -30.674200 0.332436 0.069749 -0.054854 0.012076 -141.238007 7.738535 -2.176090 -1.629260 0.051386 4.353321 -0.137135 -8.417636 20.126301 3.403449 1.602534 -7.333642 -2.589416 11.454926 -7.540699 -0.584193 -14.617211 3.396521 1.340025 
0.976130 43.134586 1.773123 -0.891315 4.413530 -6.787140 -20.272301 -0.673530 2.320370 18.397600 1.629700 0.963983 16.424000 -7.036050 1.682170 14.246300 1.612700 1.622010 2.000000 -2.000000 0.000000 -86.834198 0.188038 -170.733002 21.894800 -0.341703 0.051043 0.044953 0.000373 -133.298996 -2.000000 2.000000 0.000000 -92.490601 -175.395996 6.043730 -30.723000 0.332376 0.069850 -0.054894 0.012594 -141.423996 7.738111 -2.279865 -1.534475 0.111515 4.362080 -0.127616 -8.384697 20.075954 3.384972 1.585702 -7.368630 -2.552464 11.620248 -7.684011 -0.620561 -14.583292 3.297378 1.384961 
0.975200 43.124275 1.759013 -0.862034 4.501450 -6.903390 -20.183901 -0.702995 2.380850 18.553900 1.629860 0.987958 16.629601 -6.786380 1.770270 14.403500 1.736440 1.688340 2.000000 -2.000000 0.000000 -86.873100 0.003020 -170.507996 21.943600 -0.341659 0.051151 0.044900 -0.000501 -133.610992 -2.000000 2.000000 0.000000 -92.373398 -175.600998 6.073520 -30.693701 0.332412 0.069789 -0.054913 0.012840 -141.511993 7.690476 -2.356256 -1.471007 0.132310 4.303242 -0.107138 -8.443956 20.044975 3.435221 1.536052 -7.514275 -2.416326 11.537690 -7.577041 -0.609787 -14.567365 3.292062 1.348422 
0.969366 43.118603 1.751813 -0.822785 4.442900 -7.006910 -20.212700 -0.664961 2.398880 18.534300 1.639600 1.006590 16.538900 -6.704480 1.790920 14.345100 1.765710 1.691820 2.000000 -2.000000 0.000000 -86.980499 -0.016511 -170.507996 21.836201 -0.341755 0.050913 0.044897 -0.000555 -133.630997 -2.000000 2.000000 0.000000 -92.392998 -175.550995 6.454260 -30.664400 0.332448 0.069729 -0.054922 0.012949 -141.550995 7.468388 -2.168871 -0.570525 0.497661 4.364992 -0.088900 -8.243668 19.389479 3.289454 1.554260 -7.468585 -2.274759 11.348895 -7.471924 -0.606019 -14.397651 3.259549 1.292434 
0.968285 43.118858 1.739410 -0.901098 4.403750 -6.992820 -20.173599 -0.665305 2.397940 18.534300 1.620080 1.007280 16.571199 -6.770160 1.760030 14.364400 1.727130 1.675640 2.000000 -2.000000 0.000000 -86.941299 0.004123 -170.039001 21.933800 -0.341668 0.051129 0.044827 -0.001866 -134.098999 -2.000000 2.000000 0.000000 -92.442001 -175.382996 7.186290 -31.201500 0.331789 0.070829 -0.055068 0.014638 -142.156006 7.609106 -2.112298 -0.655049 0.392256 4.307382 -0.077685 -8.245896 19.427801 3.339656 1.539981 -7.382453 -2.257569 11.623670 -7.588856 -0.613476 -14.583270 3.305063 1.367105 
